<svg data-v-fde0c5aa="" xmlns="http://www.w3.org/2000/svg" viewBox="0 0 300 300" class="iconAbove"><!----><defs data-v-fde0c5aa=""><!----></defs><rect data-v-fde0c5aa="" fill="#E4F3EB" x="0" y="0" width="300px" height="300px" class="logo-background-square"></rect><defs data-v-fde0c5aa=""><!----></defs><g data-v-fde0c5aa="" id="0afba57a-c03b-4613-901a-5272f2757a36" fill="#0D3721" transform="matrix(3.1238734772721877,0,0,3.1238734772721877,19.562657711319922,178.8268494090909)"><path d="M12.38 8.60L12.38 1.90C12.38 1.05 12.85 0.67 13.45 0.67L13.45 0.43L10.36 0.43L7.56 7.53L4.19 0.43L0.66 0.43L0.66 0.67C1.01 0.70 1.71 0.70 2.24 1.64L2.24 6.75C2.24 6.75 2.24 10.05 0.14 10.05L0.14 10.29L4.38 10.29L4.38 10.05C2.45 10.05 2.48 6.75 2.48 6.75L2.48 2.02L6.40 10.42L6.64 10.42L10.36 1.09L10.36 8.60C10.36 9.55 9.94 10.05 9.35 10.05L9.35 10.29L13.58 10.29L13.58 10.05C12.98 10.05 12.38 9.55 12.38 8.60ZM18.03 8.85C17.91 9.18 17.58 9.56 17.11 9.56C16.20 9.56 16.20 8.64 16.20 8.64C16.20 7.92 16.66 7.27 18.03 6.96C18.03 6.96 18.03 8.82 18.03 8.85ZM20.47 9.56C19.78 9.56 19.80 8.58 19.80 8.58L19.80 6.50C19.80 4.84 19.29 3.70 17.46 3.70C17.46 3.70 16.73 3.64 16.10 3.98C15.33 4.38 15.15 4.76 15.01 5.00C14.87 5.24 14.88 5.57 15.05 5.84C15.30 6.20 15.79 6.29 16.16 6.05C16.52 5.80 16.62 5.31 16.37 4.94C16.24 4.76 16.06 4.66 15.85 4.63C15.75 4.62 15.81 4.38 16.25 4.16C17.22 3.65 18.03 4.38 18.03 5.84L18.03 6.71C15.58 7.32 14.41 7.46 14.41 8.99C14.41 10.42 16.02 10.42 16.02 10.42C17.01 10.42 17.84 9.90 18.05 9.28C18.20 10.42 19.45 10.42 19.45 10.42C20.33 10.42 20.97 9.87 21.08 9.42L20.85 9.32C20.76 9.56 20.47 9.56 20.47 9.56ZM28.98 3.74C28.78 3.51 28.46 3.43 28.20 3.49C27.87 3.54 27.29 3.72 26.88 4.31C26.43 3.93 25.79 3.70 24.86 3.70C23.16 3.70 22.18 4.66 22.18 5.80C22.18 6.54 22.62 7.27 23.32 7.57C21.97 8.09 21.98 9.37 21.98 9.37C21.98 10.00 22.33 10.36 22.71 10.54C21.88 10.91 21.03 12.03 21.52 13.05C22.06 14.20 24.61 14.32 26.57 13.23C28.04 12.40 28.11 11.23 28.11 11.23C28.38 9.11 26.75 9.00 25.79 9.00L23.83 9.00C22.34 9.00 23.20 7.85 23.58 7.69C23.91 7.83 24.32 7.90 24.86 7.90C26.59 7.90 27.57 6.93 27.57 5.80C27.57 5.29 27.40 4.83 27.06 4.48C27.30 4.19 27.64 4.12 27.62 4.23C27.59 4.42 27.65 4.62 27.79 4.79C28.08 5.11 28.59 5.15 28.91 4.86C29.25 4.56 29.27 4.06 28.98 3.74ZM24.21 10.88L26.11 10.88C27.13 10.88 27.26 11.62 27.26 11.62C27.26 11.62 27.37 12.46 26.45 13.02C25.13 13.79 23.44 13.45 22.67 12.53C22.67 12.53 21.67 11.41 22.96 10.68C23.51 10.91 24.05 10.88 24.21 10.88ZM24.86 7.66C24.25 7.66 23.81 7.36 23.81 5.80C23.81 4.23 24.16 3.93 24.86 3.93C25.47 3.93 25.93 4.23 25.93 5.80C25.93 7.36 25.51 7.66 24.86 7.66ZM32.02 1.62C32.02 1.09 31.58 0.67 31.05 0.67C30.52 0.67 30.10 1.09 30.10 1.62C30.10 2.16 30.52 2.58 31.05 2.58C31.58 2.58 32.02 2.16 32.02 1.62ZM32.06 8.58L32.06 3.70L29.61 4.26L29.61 4.49C30.18 4.80 30.32 5.00 30.32 5.47L30.32 8.58C30.32 9.30 30.30 9.88 29.76 10.05L29.76 10.29L32.63 10.29L32.63 10.05C32.13 9.91 32.06 9.37 32.06 8.58ZM39.47 8.48C39.14 8.95 38.04 9.32 37.34 9.17C36.37 8.96 35.56 8.29 35.56 6.78C35.56 4.37 36.92 3.93 37.42 3.93C37.98 3.93 38.29 4.17 38.16 4.23C37.95 4.34 37.79 4.52 37.73 4.79C37.59 5.28 37.88 5.80 38.39 5.92C38.89 6.06 39.40 5.74 39.54 5.25C39.63 4.91 39.49 4.52 39.26 4.31C39.02 4.10 38.42 3.70 37.42 3.70C35.03 3.70 33.80 5.42 33.80 7.03C33.80 8.67 35.04 10.42 36.88 10.42C38.63 10.42 39.47 9.32 39.66 8.61ZM44.23 0.43L44.23 0.67C44.84 0.67 45.04 1.50 45.04 2.37L45.04 8.37C45.04 9.32 44.83 10.05 44.23 10.05L44.23 10.29L48.27 10.29L48.27 10.05C47.67 10.05 47.07 9.95 47.07 8.37L47.07 5.45L47.56 5.45C47.56 5.45 49.71 5.39 49.97 6.89L50.20 6.89L50.20 3.74L49.97 3.74C49.71 5.24 47.56 5.18 47.56 5.18L47.07 5.18L47.07 0.67L47.56 0.67C47.56 0.67 51.35 0.55 51.84 3.09L52.08 3.09L52.08 0.43ZM55.17 3.70C53.05 3.70 51.84 5.21 51.84 7.06C51.84 8.89 53.05 10.42 55.17 10.42C57.32 10.42 58.51 8.89 58.51 7.06C58.51 5.21 57.32 3.70 55.17 3.70ZM55.17 10.18C54.17 10.18 53.90 9.59 53.90 7.06C53.90 4.52 54.17 3.93 55.17 3.93C56.18 3.93 56.43 4.52 56.43 7.06C56.43 9.59 56.18 10.18 55.17 10.18ZM63.36 3.77C63.03 3.91 62.45 4.12 61.71 5.28L61.71 3.70L59.25 4.26L59.25 4.49C59.82 4.79 59.95 5.00 59.95 5.47L59.95 8.58C59.95 9.31 59.93 9.88 59.39 10.05L59.39 10.29L62.29 10.29L62.29 10.05C61.78 9.91 61.71 9.37 61.71 8.58L61.71 5.67C62.23 4.83 62.80 4.69 62.80 4.84C62.80 5.10 62.92 5.33 63.13 5.53C63.57 5.91 64.22 5.85 64.60 5.42C64.97 5.00 64.93 4.33 64.50 3.95C64.19 3.70 63.66 3.64 63.36 3.77ZM67.31 6.69C67.31 5.35 67.89 3.93 68.71 3.93C69.48 3.93 70.06 4.93 70.06 6.69ZM68.78 3.70C66.85 3.70 65.51 5.11 65.51 7.08C65.51 8.72 66.77 10.42 68.60 10.42C70.48 10.42 71.30 9.31 71.53 8.58L71.29 8.46C70.94 9.11 69.82 9.39 69.06 9.23C68.12 9.02 67.42 8.30 67.31 6.93L71.76 6.93C71.76 4.75 70.81 3.70 68.78 3.70ZM76.58 6.66L75.17 5.78C73.95 5.01 74.34 3.93 75.25 3.93C76.69 3.93 77.14 5.19 77.32 5.68L77.56 5.68L77.56 4.12C77.56 4.12 76.86 3.70 75.25 3.70C73.85 3.70 73.32 4.40 73.32 4.40C72.55 5.40 72.91 6.54 74.27 7.36L75.68 8.22C76.75 8.92 76.58 10.18 75.59 10.18C73.95 10.18 73.50 8.55 73.29 8.01L73.05 8.01L73.05 9.77C73.05 9.77 73.89 10.42 75.59 10.42C77.01 10.42 77.55 9.66 77.55 9.66C78.25 8.65 77.83 7.43 76.58 6.66ZM82.32 9.42C81.62 9.42 81.28 9.02 81.28 8.23L81.28 4.06L82.89 4.06L82.95 3.82L81.28 3.82L81.28 1.65L79.53 1.95L79.53 3.82L78.79 3.82L78.83 4.06L79.53 4.06L79.53 8.27C79.53 9.97 80.19 10.42 81.30 10.42C82.24 10.42 83.09 9.72 83.37 9.06L83.16 8.93C83.03 9.14 82.73 9.42 82.32 9.42Z"></path></g><defs data-v-fde0c5aa=""><linearGradient data-v-fde0c5aa="" gradientTransform="rotate(25)" id="c87b11da-1826-4485-a4c9-2ecc6ed1d930" x1="0%" y1="0%" x2="100%" y2="0%"><stop data-v-fde0c5aa="" offset="0%" stop-color="#085B20" stop-opacity="1"></stop><stop data-v-fde0c5aa="" offset="100%" stop-color="#41E296" stop-opacity="1"></stop></linearGradient></defs><g data-v-fde0c5aa="" id="e03b060b-35a7-4db4-95a6-19125a226540" stroke="none" fill="url(#c87b11da-1826-4485-a4c9-2ecc6ed1d930)" transform="matrix(0.8467943934314125,0,0,0.8467943934314125,107.92865795100958,77.48965512190662)"><path d="M53.955 0c.73.153 1.283.72 1.709 1.301.508.736.896 1.625.781 2.539-.051.621-.562 1.171-1.174 1.277-.16.019-.307-.063-.445-.13a2.448 2.448 0 0 1-1.279-1.663c-.247-1.116.002-2.279.408-3.324zM65.652 1.023c.14-.077.215.096.25.2.42 1.224.705 2.559.404 3.844-.223.99-.978 1.842-1.939 2.165-.8-.017-1.491-.732-1.586-1.515-.119-.991.229-1.979.742-2.813.508-.81 1.208-1.555 2.129-1.881zM48.951 1.683c.499.052.918.359 1.304.656.853.704 1.478 1.659 1.858 2.692.252.738.393 1.558.152 2.317-.213.718-.888 1.261-1.621 1.363-.904-.286-1.687-.967-2.057-1.845-.375-.878-.402-1.858-.292-2.793.159-.81.293-1.64.656-2.39zM59.307 2.334a.813.813 0 0 1 .232-.184c.891.74 1.251 1.91 1.405 3.017.087 1.085-.001 2.3-.726 3.172-.463.568-1.248.751-1.945.613-.494-.428-.836-1.025-1.005-1.653-.198-.856-.007-1.757.346-2.547.402-.905 1.019-1.697 1.693-2.418zM43.873 4.211c1.124-.062 2.168.534 2.962 1.283.539.536 1.039 1.209 1.065 1.999.039.562-.297 1.117-.776 1.395-.62.068-1.252-.143-1.752-.507-.491-.359-.81-.898-1.044-1.449-.354-.859-.466-1.798-.455-2.721zM67.174 5.75c.37-.396.821-.775 1.378-.85.359 1.019.627 2.124.421 3.204-.159.842-.769 1.596-1.584 1.879-.221.067-.438-.054-.626-.155-.454-.246-.728-.756-.735-1.265-.039-1.048.46-2.047 1.146-2.813zM39.929 4.992c.636-.034 1.197.356 1.672.737.812.702 1.486 1.66 1.6 2.752.084.645-.266 1.325-.851 1.616-.336.209-.721-.021-1.042-.152-.849-.396-1.338-1.292-1.488-2.185-.171-.918-.068-1.86.109-2.768zM53.262 6.263c.217-.118.465.012.686.062.891.325 1.615.993 2.191 1.729.562.731.979 1.622.963 2.559.008.722-.487 1.397-1.146 1.667-.267.097-.538-.043-.786-.128-.867-.318-1.535-1.071-1.821-1.941-.449-1.272-.321-2.647-.087-3.948zM62.283 8.263c.203-.159.389-.364.65-.425.549 1.649.882 3.409.666 5.149-.129.746-.354 1.548-.963 2.048-.514.443-1.252.469-1.887.339-.569-.129-1.185-.375-1.469-.922-.322-.62-.244-1.369-.041-2.014.57-1.657 1.716-3.058 3.044-4.175zM37.172 8.83c.75.111 1.307.715 1.731 1.299.513.734.888 1.63.766 2.541-.062.583-.519 1.091-1.082 1.241-.223.068-.431-.074-.621-.17-.666-.363-1.125-1.053-1.238-1.798-.16-1.055.058-2.132.444-3.113zM69.554 10.71c.44-.682 1.038-1.359 1.86-1.553.259.549.395 1.148.488 1.746.062.744.09 1.547-.301 2.214-.288.534-.775.967-1.356 1.15-.616.003-1.149-.524-1.274-1.112-.178-.853.143-1.723.583-2.445zM47.428 9.972c.116.061.221.141.31.238.944.999 1.798 2.117 2.315 3.401.273.707.477 1.509.214 2.25-.188.581-.742.956-1.308 1.116-.574.179-1.262.229-1.769-.15-.581-.457-.797-1.224-.857-1.932-.125-1.701.291-3.424 1.095-4.923zM42.712 10.967c.227.072.356.291.508.459.571.708.802 1.613.946 2.493.09 1.032.034 2.151-.572 3.034-.431.687-1.351 1.001-2.116.778-.75-.649-1.142-1.667-1.056-2.652.182-1.611 1.168-2.998 2.29-4.112zM65.816 11.339l.129.018c1.02 1.017 1.89 2.258 2.197 3.686a3.22 3.22 0 0 1-.668 2.687c-.147.157-.281.383-.52.392-.568.082-1.184-.053-1.611-.449-.552-.501-.793-1.251-.889-1.971-.129-1.228.066-2.519.7-3.591.178-.289.395-.559.662-.772zM51.145 14.455a6.23 6.23 0 0 1 1.004-3.007c.73.271 1.215.944 1.564 1.609.438.893.711 1.946.408 2.924-.17.596-.743 1.016-1.348 1.082-.248.036-.441-.15-.625-.287-.703-.536-1.06-1.448-1.003-2.321zM32.144 16.287c-.191-1.176.024-2.385.474-3.479.766.159 1.351.747 1.804 1.351.548.785.977 1.727.874 2.707-.037.639-.512 1.21-1.122 1.39-.256.115-.508-.06-.729-.172-.677-.367-1.13-1.06-1.301-1.797zM76.141 13.549c.32-.134.698-.284 1.04-.154.08 1.114.108 2.282-.372 3.32-.347.895-1.221 1.543-2.172 1.64-.254.01-.446-.191-.623-.344-.505-.483-.545-1.276-.307-1.899.421-1.135 1.347-2.054 2.434-2.563zM55.835 14.218c.104-.04.2.06.294.093 1.292.686 2.537 1.578 3.302 2.852.667 1.049.704 2.489.051 3.55-.62.376-1.45.457-2.099.103-.65-.343-1.107-.959-1.43-1.605-.568-1.118-.762-2.408-.617-3.649.088-.47.219-.95.499-1.344zM36.503 15.027c.28-.057.555.067.813.161 1.014.424 1.807 1.254 2.388 2.168.419.672.693 1.468.609 2.27-.075.673-.581 1.259-1.21 1.488-.439.01-.854-.204-1.228-.416-.738-.452-1.221-1.232-1.417-2.063-.319-1.182-.168-2.423.045-3.608zM70.851 15.756c.386-.217.808-.41 1.26-.406.247 1.338.391 2.763-.093 4.067-.348 1.069-1.334 1.919-2.453 2.053-.653-.199-1.186-.797-1.264-1.482-.1-.754.165-1.5.53-2.148.485-.847 1.175-1.588 2.02-2.084zM42.862 20.411a10.473 10.473 0 0 1 2.605-3.964c.182.18.264.428.375.653.689 1.542 1.206 3.221 1.092 4.929-.078.665-.293 1.375-.848 1.797-.599.474-1.423.471-2.138.334-.581-.116-1.128-.522-1.296-1.106-.284-.87-.081-1.804.21-2.643zM62.11 18.164c.108-.396.178-.811.383-1.172 1.21.77 2.176 1.882 2.94 3.085.474.814.925 1.709.887 2.677.019.682-.425 1.361-1.076 1.584-.684.268-1.492.397-2.174.06-.688-.346-1.032-1.098-1.201-1.812-.316-1.465-.098-2.982.241-4.422zM28.687 17.209c1.112-.054 2.159.509 2.942 1.262.538.522 1.015 1.184 1.074 1.954.059.568-.262 1.126-.728 1.436-.614.105-1.253-.116-1.757-.466-.68-.475-1.05-1.262-1.274-2.037-.215-.694-.274-1.426-.257-2.149zM78.738 17.399c.216-.081.454-.181.686-.093.162 1.157.319 2.391-.131 3.506a2.659 2.659 0 0 1-1.565 1.557c-.187.066-.385.135-.585.1-.544-.208-.971-.733-1.012-1.321-.055-.716.222-1.413.606-2.003.496-.743 1.163-1.407 2.001-1.746zM50.2 17.566c.333.06.609.271.894.44.908.583 1.783 1.343 2.145 2.392.201.678.151 1.451-.211 2.067-.165.172-.414.207-.635.261-.611.134-1.231-.193-1.615-.656-.722-.875-.999-2.044-.957-3.16.012-.471.163-.928.379-1.344zM33.96 20.063c.784.009 1.451.518 1.988 1.043.662.686 1.224 1.552 1.286 2.527.07.715-.422 1.495-1.142 1.64-.916-.131-1.706-.805-2.028-1.666-.432-1.127-.344-2.381-.104-3.544zM74.008 20.528c.2-.071.414-.155.631-.114.243 1.11.333 2.296-.029 3.391-.265.832-.953 1.522-1.796 1.759-.131.026-.27.084-.401.039-.48-.173-.874-.592-.979-1.098-.17-.744.119-1.503.505-2.132.499-.788 1.198-1.483 2.069-1.845zM48.417 23.205c.397-.265.8-.534 1.244-.711l.134.007c.553 1.01.527 2.228.267 3.32-.228.94-.679 1.883-1.479 2.466-.569.426-1.379.433-2 .118-.174-.073-.226-.27-.298-.425a3.111 3.111 0 0 1 .128-2.672c.459-.87 1.205-1.548 2.004-2.103zM54.207 22.663c.021-.034.06-.104.079-.138a11.204 11.204 0 0 1 3.308 2.271c.619.661 1.254 1.459 1.24 2.413.002.669-.467 1.231-1.012 1.566-.459.315-1.055.496-1.6.327-.677-.253-1.117-.884-1.412-1.515-.675-1.538-.812-3.269-.603-4.924zM39.048 23.005c1.042.411 1.963 1.098 2.764 1.875.699.698 1.258 1.594 1.354 2.596a3.568 3.568 0 0 1-.425 2.012 2.105 2.105 0 0 1-2.062.177c-.667-.348-1.158-.962-1.492-1.625a6.589 6.589 0 0 1-.635-3.578 3.857 3.857 0 0 1 .496-1.457zM81.236 23.292c.803-.246 1.65-.211 2.478-.154.029.76-.414 1.447-.899 1.996-.562.592-1.277 1.128-2.116 1.201a1.414 1.414 0 0 1-1.402-.759c-.07-.224.02-.458.08-.674.262-.831 1.034-1.41 1.859-1.61zM67.941 24.267c.485-.328.979-.663 1.521-.886l.135.012c.511.913.585 2.002.43 3.021-.185 1.207-.638 2.445-1.584 3.263-.677.612-1.777.695-2.535.188-.538-.848-.605-1.963-.266-2.9.431-1.132 1.335-2.005 2.299-2.698zM30.503 23.469c.275.074.517.23.769.356 1.064.581 2.056 1.312 2.871 2.214.504.576.953 1.269.986 2.058.023.633-.375 1.206-.885 1.546-.488.354-1.119.625-1.723.42-.731-.262-1.18-.964-1.477-1.644-.662-1.555-.742-3.291-.541-4.95zM77.321 24.187c.251-.121.481-.309.763-.35a9.874 9.874 0 0 1-.146 3.836c-.223.833-.532 1.689-1.161 2.308-.38.371-.932.606-1.464.46-.784-.214-1.557-.76-1.788-1.575-.17-.766.199-1.517.649-2.113.835-1.083 1.959-1.909 3.147-2.566zM60.006 24.617c.881.002 1.672.51 2.302 1.088.722.683 1.347 1.558 1.452 2.571.1.726-.337 1.498-1.025 1.759-.217.042-.432-.034-.636-.094a2.83 2.83 0 0 1-1.721-1.508c-.558-1.186-.56-2.544-.372-3.816zM51.645 26.257c.27-.178.512-.442.847-.488.566.865.628 1.96.434 2.95-.166.751-.454 1.532-1.073 2.027-.438.376-1.079.419-1.606.23-.127-.035-.204-.149-.268-.256a2.626 2.626 0 0 1-.185-2.222c.351-.927 1.073-1.652 1.851-2.241zM24.874 26.886c1.078-.304 2.226-.017 3.186.508.59.333 1.157.782 1.443 1.415.287.571.163 1.332-.315 1.763-.463.181-.984.165-1.466.072-.68-.153-1.25-.614-1.68-1.147-.521-.663-.883-1.439-1.14-2.238a.728.728 0 0 1-.028-.373zM79.99 28.111a4.945 4.945 0 0 1 2.572-.989c.405-.014.834-.015 1.206.167-.042.417-.237.795-.386 1.18-.345.783-.819 1.538-1.512 2.057-.688.53-1.654.68-2.47.389a1.626 1.626 0 0 1-.355-1.621c.187-.478.544-.873.945-1.183zM36.63 29.166c.627-.059 1.218.265 1.727.599.936.657 1.715 1.606 1.996 2.733.132.577.039 1.26-.412 1.681-.21.217-.487.454-.814.383-.908-.132-1.724-.757-2.107-1.589-.572-1.177-.538-2.538-.39-3.807zM45.058 29.387c.097-.11.23-.028.288.076.651.875.734 2.03.605 3.079-.108.642-.327 1.295-.791 1.769-.41.451-1.099.601-1.665.391-.191-.067-.277-.268-.377-.425a2.623 2.623 0 0 1-.169-2.273c.402-1.071 1.211-1.935 2.109-2.617zM71.36 29.575c.19-.014.496-.195.62.007.164 1.13.144 2.311-.234 3.399-.358 1.042-1.333 1.886-2.45 1.956-.509-.164-.903-.632-1.049-1.14-.147-.76.125-1.536.541-2.167.615-.926 1.494-1.728 2.572-2.055zM57.887 30.708c.671-.097 1.38-.1 2.016.165.527.209.896.754.898 1.322.039.667-.107 1.413-.645 1.863-.588.481-1.402.467-2.115.369-1.369-.253-2.638-.882-3.785-1.652-.124-.117-.383-.18-.383-.372a9.265 9.265 0 0 1 4.014-1.695zM31.753 31.601c.799-.187 1.663-.274 2.453-.004.532.176.977.661 1.023 1.231.041.546.004 1.13-.288 1.609-.29.505-.87.779-1.436.82-.861.082-1.7-.182-2.5-.469a10.62 10.62 0 0 1-2.628-1.475l-.067-.114c1.014-.778 2.209-1.295 3.443-1.598zM74.147 32.068c.765-.404 1.677-.32 2.497-.164a9.097 9.097 0 0 1 3.618 1.616c.019.023.053.069.071.093-1.213.883-2.572 1.599-4.046 1.922-.734.12-1.569.168-2.203-.289-.583-.427-.753-1.202-.72-1.886.003-.529.3-1.058.783-1.292z"></path><path d="M47.43 32.013c.99.191 1.95.517 2.936.735.176.045.499.079.39.346-.572 2.354-1.094 4.73-1.326 7.146-.006.581-.097 1.166.004 1.742.026.224.226.358.36.52 1.258 1.38 2.448 2.838 3.383 4.46.06.083.101.201.212.228.209-2.073.325-4.164.179-6.246-.036-1.091-.241-2.167-.416-3.243a.88.88 0 0 1-.004-.294c.895-.276 1.805-.497 2.697-.779.182-.045.363-.117.553-.11.16.107.155.332.197.502.623 3.189.701 6.474.352 9.701.004.156-.103.351.011.483 1.806-2.676 3.682-5.359 4.833-8.4.806-2.073 1.215-4.292 1.257-6.514a91.53 91.53 0 0 1 3.476-.013c.064 1.876-.267 3.74-.715 5.555-.049.212-.131.419-.129.641.111-.019.221-.048.328-.088a11.565 11.565 0 0 1 2.265-.689c.306-.056.618-.113.93-.077.004 1.16.211 2.312.147 3.473-.558.01-1.094.186-1.611.378-1.648.6-3.132 1.611-4.357 2.859-.886.866-1.55 1.919-2.227 2.949-.945 1.44-1.975 2.834-2.75 4.379-.299.612-.594 1.262-.581 1.959.001 11.626-.005 23.251.003 34.877-.051 2.251.636 4.471 1.728 6.424a16.858 16.858 0 0 0 4.147 4.859.429.429 0 0 1 .148.22c-6.318.009-12.637.004-18.955.002.229-.263.581-.388.861-.593 2.987-1.869 4.979-5.117 5.54-8.571.282-1.448.184-2.928.193-4.392.003-5.739-.006-11.479.008-17.217-.008-.486.069-1.021-.217-1.448-.347-.444-.851-.735-1.356-.965-1.271-.564-2.649-.826-4.015-1.039-3.461-.462-6.968-.439-10.449-.259-.646.04-1.292.112-1.94.121-.103-1.152-.292-2.302-.3-3.46A35.122 35.122 0 0 1 35.813 62c.035-.67.039-1.34-.008-2.008-.088-.001-.178.004-.263-.021-1.187-.354-2.253-1.132-2.903-2.191-.654-1.031-.947-2.252-1.014-3.461-.872-.007-1.731.219-2.603.213.302-.373.767-.578 1.15-.861.172-.145.434-.222.548-.413-.504-.886-1.137-1.694-1.675-2.559.731.435 1.396.97 2.102 1.443.182.117.351.264.562.326.47-1.244 1.623-2.122 2.866-2.508.889-.261 1.844-.358 2.757-.179.808.188 1.416.846 1.712 1.599.443.993.546 2.092.68 3.159.115.622.112 1.294.467 1.842.111.183.333.239.534.25 1.4.067 2.777-.243 4.162-.397.482-.08.971-.137 1.46-.103-.172.314-.549.407-.848.56-1.413.642-2.465 1.823-3.737 2.678a5.93 5.93 0 0 1-3.09.997c-.013.508-.042 1.019.013 1.525 3.464-.003 6.965.091 10.345.926.611.168 1.22.346 1.809.582.219.082.434.187.668.207-.041-3.562-.001-7.123-.021-10.684-.083-.776-.159-1.569-.447-2.303-.59-1.619-1.575-3.057-2.658-4.383-2.455-2.962-5.423-5.458-8.543-7.69-.141-.077-.011-.235.036-.329.565-.833 1.131-1.667 1.703-2.496.048-.098.162-.139.248-.06 1.458.973 2.794 2.116 4.173 3.192.149-.185.098-.45.151-.67a48.19 48.19 0 0 1 1.281-6.17zM33.145 52.379c.214.486.578.92 1.044 1.183.454.261 1.048.191 1.459-.122.316-.238.644-.511.795-.887-.589.223-1.116.688-1.782.65-.594-.07-1.038-.508-1.516-.824zm2.781 7.483l-.003.082c.324.003.647.011.971.005v-.093a20.818 20.818 0 0 0-.968.006zm1.895.053c.177.06.396.079.57.003-.097-.131-.457-.104-.57-.003zm-.925.368c.015.561-.02 1.123.021 1.684a3.07 3.07 0 0 1 .664-.008c-.003-.528.058-1.071-.034-1.59-.193-.107-.437-.077-.651-.086zM79.389 35.637c.675-.145 1.379-.038 2.039.13.908.263 1.798.664 2.545 1.249-.341.323-.751.561-1.16.786-.825.439-1.712.805-2.651.88-.532.025-1.148-.083-1.485-.538-.334-.411-.387-.975-.322-1.482.039-.539.538-.918 1.034-1.025zM28.988 35.905c.425-.097.896-.127 1.302.06.407.192.621.633.696 1.057.079.452.064.973-.25 1.338-.358.427-.931.595-1.464.66-1.206.109-2.416-.154-3.546-.558-.065-.046-.243-.056-.208-.169.901-1.095 2.09-2.005 3.47-2.388zM33.788 37.21c.744-.486 1.577-.907 2.478-.971.577-.056 1.214.188 1.5.714.322.644.447 1.453.104 2.114-.394.66-1.186.92-1.907 1.014a8.015 8.015 0 0 1-2.375-.093c-.722-.124-1.442-.281-2.118-.572.617-.877 1.429-1.609 2.318-2.206zM71.253 36.855c.569-.398 1.332-.298 1.959-.104 1.451.5 2.689 1.494 3.671 2.655.1.126.249.248.223.427-.982.286-1.978.553-3.002.628-.884.035-1.821.043-2.626-.376-.515-.252-.923-.773-.932-1.36-.033-.674.138-1.445.707-1.87z"></path><path d="M38.782 40.429c.555-.203 1.233-.054 1.62.402.36.434.689.956.672 1.542.026.625-.411 1.155-.893 1.501-.648.476-1.422.739-2.193.94-.915.219-1.855.357-2.797.315.307-1.252.985-2.391 1.804-3.376.49-.561 1.075-1.071 1.787-1.324zM32.846 41.188c.443-.147 1.009-.137 1.335.244.307.393.451.93.334 1.42-.146.503-.645.784-1.118.921-1.103.29-2.257.134-3.358-.089.077-.311.304-.556.495-.803.637-.716 1.381-1.397 2.312-1.693zM70.754 41.792c.518-.359 1.201-.247 1.761-.056 1.297.515 2.357 1.495 3.205 2.583.223.319.488.62.623.989-1.063.316-2.194.368-3.297.32-.907-.093-1.893-.227-2.599-.857-.481-.414-.622-1.105-.464-1.703.137-.479.334-.992.771-1.276zM77.388 42.727c.225-.315.616-.455.989-.479 1.028-.086 2.023.3 2.919.767.224.146.511.251.642.497-.723.485-1.484.938-2.329 1.173-.524.167-1.112.251-1.643.063-.436-.15-.699-.59-.748-1.031-.032-.333-.054-.715.17-.99zM24.229 42.913c.378-.044.759-.106 1.142-.089-.026 2.524-.005 5.05-.009 7.574a1.337 1.337 0 0 1-.547 1.04c-.822.631-2.133.561-2.836-.22-.455-.489-.376-1.351.147-1.76.59-.535 1.456-.56 2.193-.379a68.123 68.123 0 0 0-.001-4.043c-1.744.165-3.481.408-5.222.594-.048 1.887.017 3.78-.025 5.669-.046.568-.533.996-1.038 1.19-.769.271-1.725.149-2.301-.462-.394-.41-.467-1.119-.099-1.568.452-.603 1.278-.807 1.994-.686.145.01.299.086.441.023-.02-2.06-.009-4.121.016-6.181 2.048-.243 4.096-.476 6.145-.702zM42.142 44.406c.346-.51.819-1.03 1.466-1.107.601-.08 1.115.363 1.461.805.377.481.401 1.181.06 1.688-.577.897-1.544 1.444-2.488 1.883-.504.205-1.007.438-1.547.527l-.08-.027c.057-1.32.417-2.648 1.128-3.769zM64.248 44.929c.225-.451.67-.821 1.188-.841.792-.061 1.516.354 2.145.79.956.703 1.743 1.623 2.362 2.632.112.202.245.398.302.625-1.516.217-3.098.278-4.578-.171-.616-.2-1.257-.529-1.574-1.123-.318-.607-.146-1.336.155-1.912zM25.521 59.306c.173-.185.459-.151.689-.205 1.294-.106 2.627-.062 3.866.355.651.228 1.317.547 1.722 1.128.357.512.283 1.218-.034 1.731-.29.527-.756 1.021-1.377 1.115-.734.104-1.439-.246-2.02-.663-1.218-.897-2.11-2.157-2.846-3.461zM23.787 64.338c1.019-.616 2.178-1.104 3.39-1.062.483.02 1.04.189 1.259.663.172.416.086.893-.078 1.297-.219.478-.772.706-1.276.658-1.021-.057-1.953-.557-2.797-1.099-.18-.134-.406-.241-.498-.457zM29.577 65.738c.531-.35 1.183-.659 1.833-.492.442.107.721.514.882.913.22.489.23 1.119-.125 1.55-.341.415-.857.633-1.359.782-1.181.32-2.425.271-3.625.105a7.147 7.147 0 0 1 2.394-2.858zM33.201 67.742a1.465 1.465 0 0 1 1.212-1.158c.619-.088 1.322-.063 1.829.349.557.466.689 1.244.67 1.933-.07 1.56-.663 3.05-1.451 4.38-.673-.626-1.177-1.424-1.596-2.239-.474-1.009-.891-2.136-.664-3.265zM30.315 69.688c.275-.443.757-.868 1.318-.758.646.151 1.273.748 1.192 1.456-.088.628-.555 1.114-1.021 1.506a7.431 7.431 0 0 1-2.23 1.239c-.099-1.185.124-2.418.741-3.443z"></path></g><!----></svg>