<svg data-v-423bf9ae="" xmlns="http://www.w3.org/2000/svg" viewBox="0 0 368.44391209857315 60" class="font"><!----><!----><!----><g data-v-423bf9ae="" id="8dda617c-49cb-4888-9b2a-6d5b8d441753" fill="white" transform="matrix(4.426816018719761,0,0,4.426816018719761,-0.6197591525924508,-1.903531694572937)"><path d="M12.38 8.60L12.38 1.90C12.38 1.05 12.85 0.67 13.45 0.67L13.45 0.43L10.36 0.43L7.56 7.53L4.19 0.43L0.66 0.43L0.66 0.67C1.01 0.70 1.71 0.70 2.24 1.64L2.24 6.75C2.24 6.75 2.24 10.05 0.14 10.05L0.14 10.29L4.38 10.29L4.38 10.05C2.45 10.05 2.48 6.75 2.48 6.75L2.48 2.02L6.40 10.42L6.64 10.42L10.36 1.09L10.36 8.60C10.36 9.55 9.94 10.05 9.35 10.05L9.35 10.29L13.58 10.29L13.58 10.05C12.98 10.05 12.38 9.55 12.38 8.60ZM18.03 8.85C17.91 9.18 17.58 9.56 17.11 9.56C16.20 9.56 16.20 8.64 16.20 8.64C16.20 7.92 16.66 7.27 18.03 6.96C18.03 6.96 18.03 8.82 18.03 8.85ZM20.47 9.56C19.78 9.56 19.80 8.58 19.80 8.58L19.80 6.50C19.80 4.84 19.29 3.70 17.46 3.70C17.46 3.70 16.73 3.64 16.10 3.98C15.33 4.38 15.15 4.76 15.01 5.00C14.87 5.24 14.88 5.57 15.05 5.84C15.30 6.20 15.79 6.29 16.16 6.05C16.52 5.80 16.62 5.31 16.37 4.94C16.24 4.76 16.06 4.66 15.85 4.63C15.75 4.62 15.81 4.38 16.25 4.16C17.22 3.65 18.03 4.38 18.03 5.84L18.03 6.71C15.58 7.32 14.41 7.46 14.41 8.99C14.41 10.42 16.02 10.42 16.02 10.42C17.01 10.42 17.84 9.90 18.05 9.28C18.20 10.42 19.45 10.42 19.45 10.42C20.33 10.42 20.97 9.87 21.08 9.42L20.85 9.32C20.76 9.56 20.47 9.56 20.47 9.56ZM28.98 3.74C28.78 3.51 28.46 3.43 28.20 3.49C27.87 3.54 27.29 3.72 26.88 4.31C26.43 3.93 25.79 3.70 24.86 3.70C23.16 3.70 22.18 4.66 22.18 5.80C22.18 6.54 22.62 7.27 23.32 7.57C21.97 8.09 21.98 9.37 21.98 9.37C21.98 10.00 22.33 10.36 22.71 10.54C21.88 10.91 21.03 12.03 21.52 13.05C22.06 14.20 24.61 14.32 26.57 13.23C28.04 12.40 28.11 11.23 28.11 11.23C28.38 9.11 26.75 9.00 25.79 9.00L23.83 9.00C22.34 9.00 23.20 7.85 23.58 7.69C23.91 7.83 24.32 7.90 24.86 7.90C26.59 7.90 27.57 6.93 27.57 5.80C27.57 5.29 27.40 4.83 27.06 4.48C27.30 4.19 27.64 4.12 27.62 4.23C27.59 4.42 27.65 4.62 27.79 4.79C28.08 5.11 28.59 5.15 28.91 4.86C29.25 4.56 29.27 4.06 28.98 3.74ZM24.21 10.88L26.11 10.88C27.13 10.88 27.26 11.62 27.26 11.62C27.26 11.62 27.37 12.46 26.45 13.02C25.13 13.79 23.44 13.45 22.67 12.53C22.67 12.53 21.67 11.41 22.96 10.68C23.51 10.91 24.05 10.88 24.21 10.88ZM24.86 7.66C24.25 7.66 23.81 7.36 23.81 5.80C23.81 4.23 24.16 3.93 24.86 3.93C25.47 3.93 25.93 4.23 25.93 5.80C25.93 7.36 25.51 7.66 24.86 7.66ZM32.02 1.62C32.02 1.09 31.58 0.67 31.05 0.67C30.52 0.67 30.10 1.09 30.10 1.62C30.10 2.16 30.52 2.58 31.05 2.58C31.58 2.58 32.02 2.16 32.02 1.62ZM32.06 8.58L32.06 3.70L29.61 4.26L29.61 4.49C30.18 4.80 30.32 5.00 30.32 5.47L30.32 8.58C30.32 9.30 30.30 9.88 29.76 10.05L29.76 10.29L32.63 10.29L32.63 10.05C32.13 9.91 32.06 9.37 32.06 8.58ZM39.47 8.48C39.14 8.95 38.04 9.32 37.34 9.17C36.37 8.96 35.56 8.29 35.56 6.78C35.56 4.37 36.92 3.93 37.42 3.93C37.98 3.93 38.29 4.17 38.16 4.23C37.95 4.34 37.79 4.52 37.73 4.79C37.59 5.28 37.88 5.80 38.39 5.92C38.89 6.06 39.40 5.74 39.54 5.25C39.63 4.91 39.49 4.52 39.26 4.31C39.02 4.10 38.42 3.70 37.42 3.70C35.03 3.70 33.80 5.42 33.80 7.03C33.80 8.67 35.04 10.42 36.88 10.42C38.63 10.42 39.47 9.32 39.66 8.61ZM44.23 0.43L44.23 0.67C44.84 0.67 45.04 1.50 45.04 2.37L45.04 8.37C45.04 9.32 44.83 10.05 44.23 10.05L44.23 10.29L48.27 10.29L48.27 10.05C47.67 10.05 47.07 9.95 47.07 8.37L47.07 5.45L47.56 5.45C47.56 5.45 49.71 5.39 49.97 6.89L50.20 6.89L50.20 3.74L49.97 3.74C49.71 5.24 47.56 5.18 47.56 5.18L47.07 5.18L47.07 0.67L47.56 0.67C47.56 0.67 51.35 0.55 51.84 3.09L52.08 3.09L52.08 0.43ZM55.17 3.70C53.05 3.70 51.84 5.21 51.84 7.06C51.84 8.89 53.05 10.42 55.17 10.42C57.32 10.42 58.51 8.89 58.51 7.06C58.51 5.21 57.32 3.70 55.17 3.70ZM55.17 10.18C54.17 10.18 53.90 9.59 53.90 7.06C53.90 4.52 54.17 3.93 55.17 3.93C56.18 3.93 56.43 4.52 56.43 7.06C56.43 9.59 56.18 10.18 55.17 10.18ZM63.36 3.77C63.03 3.91 62.45 4.12 61.71 5.28L61.71 3.70L59.25 4.26L59.25 4.49C59.82 4.79 59.95 5.00 59.95 5.47L59.95 8.58C59.95 9.31 59.93 9.88 59.39 10.05L59.39 10.29L62.29 10.29L62.29 10.05C61.78 9.91 61.71 9.37 61.71 8.58L61.71 5.67C62.23 4.83 62.80 4.69 62.80 4.84C62.80 5.10 62.92 5.33 63.13 5.53C63.57 5.91 64.22 5.85 64.60 5.42C64.97 5.00 64.93 4.33 64.50 3.95C64.19 3.70 63.66 3.64 63.36 3.77ZM67.31 6.69C67.31 5.35 67.89 3.93 68.71 3.93C69.48 3.93 70.06 4.93 70.06 6.69ZM68.78 3.70C66.85 3.70 65.51 5.11 65.51 7.08C65.51 8.72 66.77 10.42 68.60 10.42C70.48 10.42 71.30 9.31 71.53 8.58L71.29 8.46C70.94 9.11 69.82 9.39 69.06 9.23C68.12 9.02 67.42 8.30 67.31 6.93L71.76 6.93C71.76 4.75 70.81 3.70 68.78 3.70ZM76.58 6.66L75.17 5.78C73.95 5.01 74.34 3.93 75.25 3.93C76.69 3.93 77.14 5.19 77.32 5.68L77.56 5.68L77.56 4.12C77.56 4.12 76.86 3.70 75.25 3.70C73.85 3.70 73.32 4.40 73.32 4.40C72.55 5.40 72.91 6.54 74.27 7.36L75.68 8.22C76.75 8.92 76.58 10.18 75.59 10.18C73.95 10.18 73.50 8.55 73.29 8.01L73.05 8.01L73.05 9.77C73.05 9.77 73.89 10.42 75.59 10.42C77.01 10.42 77.55 9.66 77.55 9.66C78.25 8.65 77.83 7.43 76.58 6.66ZM82.32 9.42C81.62 9.42 81.28 9.02 81.28 8.23L81.28 4.06L82.89 4.06L82.95 3.82L81.28 3.82L81.28 1.65L79.53 1.95L79.53 3.82L78.79 3.82L78.83 4.06L79.53 4.06L79.53 8.27C79.53 9.97 80.19 10.42 81.30 10.42C82.24 10.42 83.09 9.72 83.37 9.06L83.16 8.93C83.03 9.14 82.73 9.42 82.32 9.42Z"></path></g><!----><!----></svg>